HIERARCHY
ROOT Hips
{
	OFFSET	0.00	0.00	0.00
	CHANNELS 6 Xposition Yposition Zposition Zrotation Xrotation Yrotation
	JOINT Chest
	{
		OFFSET	0.000000	6.275751	0.000000
		CHANNELS 3 Zrotation Xrotation Yrotation
		JOINT Neck
		{
			OFFSET	0.000000	14.296947	0.000000
			CHANNELS 3 Zrotation Xrotation Yrotation
			JOINT Head
			{
				OFFSET	0.000000	2.637461	0.000000
				CHANNELS 3 Zrotation Xrotation Yrotation
				End Site
				{
					OFFSET	0.000000	4.499004	0.000000
				}
			}
		}
		JOINT LeftCollar
		{
			OFFSET	1.120000	11.362855	1.870000
			CHANNELS 3 Zrotation Xrotation Yrotation
			JOINT LeftUpArm
			{
				OFFSET	4.565688	2.019026	-1.821179
				CHANNELS 3 Zrotation Xrotation Yrotation
				JOINT LeftLowArm
				{
					OFFSET	0.219729	-10.348825	-0.061708
					CHANNELS 3 Zrotation Xrotation Yrotation
					JOINT LeftHand
					{
						OFFSET	0.087892	-10.352228	2.178217
						CHANNELS 3 Zrotation Xrotation Yrotation
						End Site
						{
							OFFSET	0.131837	-6.692379	1.711456
						}
					}
				}
			}
		}
		JOINT RightCollar
		{
			OFFSET	-1.120000	11.362855	1.870000
			CHANNELS 3 Zrotation Xrotation Yrotation
			JOINT RightUpArm
			{
				OFFSET	-4.708080	2.034554	-1.821179
				CHANNELS 3 Zrotation Xrotation Yrotation
				JOINT RightLowArm
				{
					OFFSET	-0.263676	-10.428555	-0.061708
					CHANNELS 3 Zrotation Xrotation Yrotation
					JOINT RightHand
					{
						OFFSET	0.000000	-10.255345	2.178217
						CHANNELS 3 Zrotation Xrotation Yrotation
						End Site
						{
							OFFSET	-0.140882	-6.671274	1.711456
						}
					}
				}
			}
		}
	}
	JOINT LeftUpLeg
	{
		OFFSET	3.910000	0.000000	0.000000
		CHANNELS 3 Zrotation Xrotation Yrotation
		JOINT LeftLowLeg
		{
			OFFSET	-0.441177	-17.569450	1.695613
			CHANNELS 3 Zrotation Xrotation Yrotation
			JOINT LeftFoot
			{
				OFFSET	-0.043946	-17.197315	-1.478076
				CHANNELS 3 Zrotation Xrotation Yrotation
				End Site
				{
					OFFSET	0.000000	-3.933155	5.233925
				}
			}
		}
	}
	JOINT RightUpLeg
	{
		OFFSET	-3.910000	0.000000	0.000000
		CHANNELS 3 Zrotation Xrotation Yrotation
		JOINT RightLowLeg
		{
			OFFSET	0.437741	-17.622387	1.695613
			CHANNELS 3 Zrotation Xrotation Yrotation
			JOINT RightFoot
			{
				OFFSET	0.000000	-17.140001	-1.478076
				CHANNELS 3 Zrotation Xrotation Yrotation
				End Site
				{
					OFFSET	0.000000	-4.038528	5.233925
				}
			}
		}
	}
}
MOTION
Frames: 21
Frame Time: 0.04166667
-9.500698	4.978651	9.957552	-9.165418	-4.254632	112.719376	3.158135	-13.845490	-4.158125	0.924793	7.422006	2.218756	-1.744739	-3.767782	-0.625076	-24.706831	20.989763	17.716640	98.027115	-14.504385	78.592545	-10.354374	5.805860	0.661153	-3.183615	2.481389	-0.676280	21.633018	23.265169	-18.488997	-103.545769	-23.387529	-63.185726	3.998950	19.062941	-4.079215	-4.257406	2.431009	-0.912374	13.099427	-9.657161	50.515614	-1.191586	12.307043	1.133706	-10.095422	-1.752038	0.544583	-9.671520	-6.560384	-87.039207	2.650454	10.829663	6.756783	-0.042341	2.468149	5.005744	
-9.493211	4.981636	9.948975	-9.248199	-4.293232	112.792404	3.151181	-13.961081	-4.157189	0.954052	7.505590	2.213373	-1.750949	-3.706596	-0.625474	-24.543028	20.946720	17.607296	98.883972	-14.235478	77.034996	-11.057310	7.164328	0.722054	-2.531661	2.474495	-0.537865	21.396622	23.075546	-18.283949	-103.179123	-23.290525	-62.708199	4.043742	19.034306	-4.085075	-4.286398	2.431465	-0.918525	13.095052	-9.728586	50.661137	-1.230711	12.285953	0.949772	-10.033015	-1.720737	0.545553	-9.666054	-6.608829	-87.178352	2.655309	10.790651	6.793145	-0.026473	2.497006	5.003337	
-9.486388	4.983963	9.945466	-9.314671	-4.324988	112.901688	3.141646	-14.004167	-4.162693	0.941093	7.525779	2.270010	-1.729254	-3.725677	-0.618279	-24.378176	20.888281	17.490208	98.632919	-14.311772	75.363510	-10.751361	6.805580	0.595865	-3.046952	2.479829	-0.647272	21.193998	22.890217	-18.209078	-102.863045	-23.307302	-62.585953	4.043274	19.051126	-4.073322	-4.388196	2.433115	-0.940360	13.081332	-9.805232	50.676075	-1.253002	12.255334	0.846770	-10.005900	-1.684505	0.549873	-9.678813	-6.631594	-87.385605	2.669284	10.793576	6.874008	-0.064778	2.525089	5.009224	
-9.399122	5.007269	9.894439	-8.642093	-3.504779	112.128769	2.605058	-13.320209	-3.322111	1.152900	7.786301	2.406441	-1.931869	-2.264502	-0.642317	-23.672413	20.647476	17.085203	97.157600	-14.507102	76.074684	-10.038988	5.098551	0.058395	-3.918335	2.491092	-0.832126	20.485502	22.077904	-17.489019	-101.618675	-22.958864	-61.438316	4.021541	18.969000	-4.048748	-4.730849	2.438928	-1.013634	12.480556	-8.068658	52.437080	-1.501649	11.577236	-0.365687	-10.044327	-1.365200	0.608518	-9.852183	-5.786417	-86.442825	2.672327	10.383611	6.978239	-0.234360	2.432721	5.034760	
-9.482192	4.986624	9.947871	-9.403378	-4.352537	113.055603	3.074682	-13.867607	-4.203410	0.964179	7.441271	2.274825	-1.700350	-3.688244	-0.606855	-24.440672	20.985250	17.497911	97.247704	-15.007838	75.200340	-9.253240	3.580414	-0.118398	-3.863116	2.490313	-0.820398	21.343843	22.952717	-18.269022	-103.415085	-23.980797	-66.713478	2.854886	19.713114	-3.968150	-4.469264	2.434422	-0.957646	13.029175	-9.930258	50.505932	-1.244895	12.188680	0.890292	-10.000758	-1.602150	0.563836	-9.688943	-6.662282	-87.610207	2.678501	10.771392	6.933766	-0.020258	2.523869	5.002408	
-9.483058	4.986887	9.949059	-9.450731	-4.377545	113.088394	3.085850	-13.795714	-4.234689	0.945653	7.397980	2.392561	-1.724742	-3.634786	-0.613985	-24.479809	20.980183	17.501274	97.236176	-15.018657	75.349342	-9.217860	3.481575	-0.127491	-3.913811	2.491004	-0.831166	21.383278	23.016115	-18.258493	-102.905106	-23.420582	-62.832127	4.060538	19.025057	-4.070132	-4.550134	2.435821	-0.975006	13.021573	-9.995288	50.419598	-1.235227	12.169715	0.939000	-10.040659	-1.589688	0.568969	-9.684284	-6.703902	-87.658150	2.680825	10.763638	6.952350	-0.040225	2.536991	5.005477	
-9.482802	4.986743	9.948057	-9.486882	-4.402617	113.069191	3.060716	-13.692052	-4.178909	1.009626	7.341037	2.438213	-1.739063	-3.619800	-0.618646	-24.584942	21.117363	17.619268	97.485184	-15.086641	75.528442	-9.318610	3.624345	-0.092116	-3.822788	2.489718	-0.811835	21.518221	23.006706	-18.321489	-103.010643	-23.546612	-63.003010	4.019876	19.053133	-4.060108	-4.638647	2.437350	-0.993907	13.035573	-10.019279	50.471806	-1.242389	12.160901	0.904011	-10.063583	-1.595595	0.569685	-9.661431	-6.748369	-87.622070	2.675897	10.734447	6.930067	0.006743	2.538582	4.998302	
-9.479234	4.986284	9.944637	-9.527017	-4.435364	113.024834	3.043206	-13.686677	-4.106124	1.091164	7.386053	2.457472	-1.754471	-3.566461	-0.622526	-24.524431	21.114788	17.636532	97.484039	-15.172591	75.695648	-9.284242	3.635890	-0.087024	-3.777658	2.489034	-0.802303	21.469641	22.893545	-18.246317	-102.924179	-23.646627	-62.817085	3.981815	19.088848	-4.065157	-4.698136	2.438390	-1.006640	13.069999	-10.052017	50.553860	-1.247441	12.190351	0.877764	-10.063668	-1.616934	0.565933	-9.637125	-6.793864	-87.662300	2.686373	10.716462	6.998168	-0.026092	2.572302	5.003327	
-9.473706	4.986454	9.941782	-9.554318	-4.460359	112.993134	3.063090	-13.730551	-4.152715	1.052235	7.508770	2.569124	-1.692490	-3.572798	-0.600705	-24.387972	20.978176	17.555418	97.376862	-15.064295	75.402084	-9.326083	3.736043	-0.062325	-3.684904	2.487826	-0.782625	21.338755	22.884504	-18.102039	-102.858772	-23.736824	-62.650326	3.979699	19.096886	-4.057277	-4.590989	2.436516	-0.983733	13.102723	-10.082288	50.588577	-1.246400	12.227899	0.881187	-10.064071	-1.627574	0.564111	-9.616968	-6.822201	-87.694664	2.694033	10.705130	7.043679	-0.031691	2.589687	5.004183	
-9.467438	4.987053	9.938535	-9.555624	-4.470829	112.961838	3.076476	-13.751032	-4.244689	0.998126	7.620415	2.706012	-1.661862	-3.433026	-0.585852	-24.231421	20.783012	17.486546	97.098953	-14.962703	75.012650	-9.255235	3.590445	-0.102185	-3.670348	2.487590	-0.779531	21.154709	22.873724	-17.922573	-102.751541	-23.843519	-62.408943	3.987392	19.109703	-4.056715	-4.538583	2.435614	-0.972495	13.123323	-10.071054	50.622002	-1.247198	12.241480	0.876454	-10.069096	-1.634473	0.563264	-9.609200	-6.826325	-87.674332	2.695606	10.707355	7.050326	-0.043826	2.608511	5.006068	
-9.460734	4.986325	9.932895	-9.563467	-4.478698	112.921684	3.041378	-13.781361	-4.176342	1.031311	7.710549	2.624741	-1.696892	-3.247584	-0.592821	-24.178514	20.811007	17.440638	97.081337	-14.914094	74.424873	-9.245452	3.496554	-0.164611	-3.634266	2.487082	-0.771901	21.117107	22.784765	-17.838909	-102.673210	-23.893772	-62.350346	3.961599	19.146891	-4.060286	-4.540959	2.435624	-0.972994	13.127607	-10.078530	50.492352	-1.216550	12.259209	1.020926	-10.157700	-1.658068	0.565675	-9.613536	-6.837636	-87.609634	2.690045	10.717079	7.014559	-0.003785	2.611442	4.999934	
-9.453671	4.985116	9.925714	-9.577129	-4.486349	112.888626	2.999737	-13.811351	-4.070501	1.070205	7.773244	2.565165	-1.713647	-3.185399	-0.596852	-24.238939	20.950132	17.424997	97.129608	-14.935218	74.389915	-9.164729	3.403453	-0.202533	-3.645191	2.487236	-0.774188	21.226866	22.782871	-17.844931	-103.251114	-24.556107	-66.052307	2.628427	19.818275	-3.900312	-4.370613	2.432811	-0.936601	13.134496	-10.100150	50.379856	-1.188193	12.299798	1.152833	-10.200607	-1.679843	0.564999	-9.619390	-6.845323	-87.605942	2.694409	10.726073	7.035765	-0.010884	2.616287	5.000976	
-9.443925	4.984542	9.917246	-9.584442	-4.496069	112.857796	2.970467	-13.871394	-4.005277	1.074342	7.860688	2.561810	-1.755100	-3.163435	-0.610635	-24.138794	20.896347	17.345755	97.381012	-14.762303	77.244492	-9.969633	4.859252	0.483008	-3.836717	2.489938	-0.814805	21.133245	22.660234	-17.751129	-102.543663	-23.956974	-61.968136	3.874930	19.193314	-4.049750	-4.478258	2.434566	-0.959598	13.144554	-10.103534	50.328053	-1.171709	12.330335	1.228960	-10.229712	-1.702399	0.563099	-9.619924	-6.847406	-87.582520	2.695026	10.731509	7.037476	-0.032416	2.635900	5.004336	
-9.434259	4.982397	9.908498	-9.556866	-4.485056	112.821693	2.942734	-13.892066	-3.944163	1.062366	7.929017	2.591643	-1.804973	-3.069621	-0.625096	-23.968481	20.777624	17.255613	97.100121	-14.825201	76.916359	-9.887995	4.718406	0.452977	-3.881163	2.490510	-0.824261	20.959538	22.500055	-17.636524	-102.797951	-24.666649	-65.349785	2.624967	19.856577	-3.910735	-4.306916	2.431813	-0.922962	13.157540	-10.053106	50.357899	-1.172180	12.368958	1.224897	-10.242520	-1.744983	0.556470	-9.631989	-6.812669	-87.501701	2.690072	10.750597	7.000031	0.010424	2.619161	4.997744	
-9.424200	4.979071	9.901627	-9.508060	-4.468847	112.804779	2.872261	-13.862186	-3.890428	1.087193	7.952600	2.625548	-1.869198	-2.987913	-0.644729	-23.975344	20.880943	17.249327	96.972038	-14.915800	76.998596	-9.714636	4.518056	0.407927	-4.015656	2.492483	-0.852752	20.984495	22.440458	-17.595661	-102.166809	-24.026089	-61.333637	3.937389	19.186924	-4.041650	-4.446388	2.434050	-0.952796	13.172526	-10.009290	50.266304	-1.150381	12.428306	1.324164	-10.282695	-1.790821	0.551213	-9.662984	-6.754129	-87.457558	2.690402	10.814011	6.983802	-0.005551	2.614531	5.000176	
-9.413399	4.976197	9.897266	-9.483376	-4.460760	112.787888	2.758857	-13.869080	-3.854500	1.169332	7.992862	2.645208	-1.911664	-3.039867	-0.661096	-24.038029	21.053555	17.288380	96.876450	-15.045918	77.268913	-9.386104	4.318553	0.025778	-4.138341	2.494352	-0.878771	21.062536	22.385834	-17.521351	-102.051605	-23.977673	-61.163422	3.952950	19.169527	-4.044497	-4.443097	2.434030	-0.952084	13.179745	-9.988379	50.126366	-1.120964	12.465714	1.459871	-10.347472	-1.824062	0.549816	-9.678496	-6.715112	-87.413307	2.689414	10.854290	6.965740	0.036225	2.582353	4.993736	
-9.403063	4.974817	9.892971	-9.451506	-4.454978	112.774452	2.644891	-13.886857	-3.847447	1.254978	8.043477	2.643217	-1.956547	-3.098274	-0.678590	-23.924974	21.075157	17.251245	96.970566	-14.965566	77.122238	-9.689051	4.661951	0.429973	-3.954055	2.491610	-0.839680	20.989910	22.240662	-17.363796	-101.790932	-23.908035	-60.786465	4.043802	19.132376	-4.053408	-4.416708	2.433596	-0.946490	13.185683	-9.969232	49.960411	-1.085852	12.500010	1.623289	-10.394715	-1.850837	0.548286	-9.698457	-6.678160	-87.368286	2.685365	10.901726	6.928151	0.054776	2.580598	4.990880	
-9.393376	4.973374	9.886582	-9.415844	-4.458184	112.759697	2.587938	-13.897433	-3.895750	1.242395	8.069466	2.674995	-1.965640	-3.129805	-0.682812	-23.841585	21.010839	17.182285	96.804848	-14.900054	77.012589	-9.630507	4.642420	0.420111	-4.047968	2.492989	-0.859630	20.906755	22.181005	-17.239382	-101.614220	-23.917856	-60.458771	4.117554	19.125963	-4.075523	-4.444355	2.434032	-0.952360	13.197456	-9.949998	49.765236	-1.046942	12.536814	1.805000	-10.463181	-1.894694	0.545109	-9.693799	-6.634115	-87.241760	2.676504	10.920667	6.866788	0.100891	2.571689	4.983822	
-9.385763	4.972212	9.878416	-9.408937	-4.481982	112.720253	2.495697	-13.946473	-3.932853	1.290021	8.101282	2.736439	-1.937002	-3.228482	-0.676133	-23.763622	21.022455	17.159819	96.727440	-14.829917	76.995384	-9.620943	4.654129	0.412244	-3.993790	2.492147	-0.848153	20.771114	22.014872	-17.083015	-101.322411	-23.964340	-60.066692	4.101867	19.118988	-4.064408	-4.461225	2.434319	-0.955972	13.221541	-9.932772	49.737160	-1.035402	12.558316	1.857600	-10.493887	-1.950263	0.537125	-9.723096	-6.629682	-87.186066	2.681643	10.977374	6.878552	0.111821	2.651424	4.982008	
-9.380712	4.970554	9.864095	-9.420848	-4.535695	112.660431	2.297827	-14.041260	-3.853269	1.495762	8.175140	2.581789	-1.920738	-3.334221	-0.673930	-23.568567	21.189117	17.127132	96.735001	-14.834430	77.086304	-9.688256	4.666197	0.421185	-3.674889	2.487643	-0.780493	20.635504	21.612347	-16.839865	-100.824577	-23.871227	-59.377541	4.156330	19.111504	-4.055978	-4.513155	2.435214	-0.967087	13.216280	-9.935094	49.474136	-0.980199	12.531938	2.120349	-10.638954	-2.087669	0.521651	-9.756373	-6.665634	-87.064171	2.679129	11.046662	6.840959	0.166578	2.777758	4.973111	
-9.382830	4.973192	9.833582	-9.363129	-4.549966	112.594917	2.100382	-13.984400	-3.826102	1.679836	8.165138	2.448466	-1.904387	-3.393154	-0.670113	-23.514746	21.347176	17.241335	96.995293	-14.892579	77.412796	-9.890614	4.927166	0.481528	-3.275370	2.482486	-0.695757	20.668707	21.382692	-16.694143	-100.567307	-23.877945	-59.103363	4.151336	19.121937	-4.073506	-4.570446	2.436183	-0.979327	13.118339	-9.843618	49.015583	-0.895300	12.414398	2.533484	-10.829224	-2.241992	0.505076	-9.798654	-6.651436	-87.160652	2.684132	11.083659	6.860565	0.009456	2.957162	4.997818	
